<svg height="512" viewBox="0 0 44 58" width="512" xmlns="http://www.w3.org/2000/svg"><g id="Page-1" fill="none" fill-rule="evenodd"><g id="025---Coffee-Bean-Tin" fill-rule="nonzero"><path id="Shape" d="m14 22h27v-8h-1-5-5-26-1v8h6z" fill="#b19046"/><path id="Shape" d="m14 20h27c1.1032019.0032948 1.9967052.8967981 2 2v34c-.0032948 1.1032019-.8967981 1.9967052-2 2h-38c-1.10320187-.0032948-1.9967052-.8967981-2-2v-34c.0032948-1.1032019.89679813-1.9967052 2-2h6" fill="#f3d55b"/><path id="Shape" d="m39 55h-3c-.5522847 0-1-.4477153-1-1s.4477153-1 1-1h2v-2c0-.5522847.4477153-1 1-1s1 .4477153 1 1v3c0 .5522847-.4477153 1-1 1z" fill="#b19046"/><path id="Shape" d="m5 28c-.55228475 0-1-.4477153-1-1v-3c0-.5522847.44771525-1 1-1h3c.55228475 0 1 .4477153 1 1s-.44771525 1-1 1h-2v2c0 .5522847-.44771525 1-1 1z" fill="#f5efca"/><path id="Shape" d="m30 16h-26c-2.209139 0-4-1.790861-4-4s1.790861-4 4-4h36c2.209139 0 4 1.790861 4 4s-1.790861 4-4 4h-5" fill="#f3d55b"/><circle id="Oval" cx="22" cy="4" fill="#f0c419" r="4"/><path id="Shape" d="m24.26 48.15c-.1379247.3176881-.2983316.6251347-.48.92-2.47-2.34-4.33-.56-6.8-3.02-2.51-2.5-.63-4.38-3.14-6.88-2.46-2.46-4.33-.68-6.79-3.02h-.01c.1825244-.2787641.38647392-.5428954.61-.79.06840772-.093636.14540856-.1806804.23-.26 2.79-2.77 7.79-2.4 11.78.66.4892087.3762038.9535156.783725 1.39 1.22 3.41 3.38 4.59 7.92 3.21 11.17z" fill="#cb8252"/><path id="Shape" d="m23.78 49.07c-.1800301.280531-.3841335.5448617-.61.79-.0136117.0223598-.0304614.0425793-.05.06-.0543644.071531-.114571.1384272-.18.2-3.12 3.1-9.02 2.27-13.17-1.88-3.41-3.39-4.59-7.94-3.2-11.19.13267622-.3119304.28983362-.6128701.47-.9h.01c2.46 2.34 4.33.56 6.79 3.02 2.51 2.5.63 4.38 3.14 6.88 2.47 2.46 4.33.68 6.8 3.02z" fill="#cf976a"/><path id="Shape" d="m24.26 48.15c-.1379247.3176881-.2983316.6251347-.48.92-.1800301.280531-.3841335.5448617-.61.79-.03-.02-.05-.04-.08-.06-.7561951-.7274231-1.7517314-1.1540815-2.8-1.2-3.1325702-.2334265-5.6258835-2.7182447-5.87-5.85-.1293383-2.2400384-1.9196568-4.0260532-4.16-4.15-1.36765173-.0940177-2.66545553-.6391657-3.69-1.55.25763954-.622553.62326067-1.1946824 1.08-1.69.03234407.0201524.0625061.0436117.09.07.75851304.7225277 1.75338897 1.1453499 2.8 1.19 3.1282954.2389437 5.6157137 2.7221173 5.86 5.85.0442272 1.0871256.5063384 2.1152334 1.29 2.87.7620111.7777933 1.7920429 1.2355852 2.88 1.28 1.3634027.096222 2.658533.6332272 3.69 1.53z" fill="#805333"/><path id="Shape" d="m38 39.5c.01 7.15-4.51 12.9-9.97 12.47-.3326727-.0304055-.6632518-.0804932-.99-.15.1-4 3.14-4.06 3.14-8.15 0-4.17-3.14-4.17-3.14-8.34 0-4.09 3.04-4.15 3.14-8.15.3384739.0695381.6698605.1699583.99.3 3.94 1.48 6.84 6.31 6.83 12.02z" fill="#805333"/><path id="Shape" d="m27.04 35.33c0 4.17 3.14 4.17 3.14 8.34 0 4.09-3.04 4.15-3.14 8.15-.3348158-.0713074-.6653411-.1614507-.99-.27-1.0592881-.3793262-2.0491173-.929982-2.93-1.63.2455197-.2625633.4664447-.5470879.66-.85 2.07-3.27 1.01-8.38-2.73-12.09-.4364844-.436275-.9007913-.8437962-1.39-1.22 1.18-5.09 4.74-8.74 8.95-8.76.1937206.0000202.3873111.0100335.58.03.3327625.0296619.6633863.0797564.99.15-.1 4-3.14 4.06-3.14 8.15z" fill="#a56a43"/><path id="Shape" d="m31.18 43.67c.0201756 1.7481696-.6107468 3.4413228-1.77 4.75-.8538716.9376615-1.3403796 2.152156-1.37 3.42.0016501.0435732-.0017052.0871918-.01.13-.3326727-.0304055-.6632518-.0804932-.99-.15-.3348158-.0713074-.6653411-.1614507-.99-.27.0843339-1.6017473.7081612-3.1278332 1.77-4.33.8926585-.964614 1.3796757-2.235872 1.36-3.55.0147373-1.3210638-.4752712-2.597947-1.37-3.57-2.3601934-2.7344799-2.3601934-6.7855201 0-9.52.8538716-.9376615 1.3403796-2.152156 1.37-3.42-.0016501-.0435732.0017052-.0871918.01-.13.3327625.0296619.6633863.0797564.99.15.3384739.0695381.6698605.1699583.99.3-.0924354 1.5909622-.7156508 3.1049884-1.77 4.3-.8926585.964614-1.3796757 2.235872-1.36 3.55-.0147373 1.3210638.4752712 2.597947 1.37 3.57 1.1608212 1.3156602 1.7916079 3.0155768 1.77 4.77z" fill="#603e26"/></g></g></svg>