<svg width="25" height="25" viewBox="0 0 25 25" fill="none" xmlns="http://www.w3.org/2000/svg">
<path d="M8.58025 19.2891C6.91234 19.2891 5.5556 20.5699 5.5556 22.1445C5.5556 23.7191 6.91239 25 8.58025 25C10.2481 25 11.6049 23.7188 11.6049 22.1445C11.6049 20.5703 10.2481 19.2891 8.58025 19.2891ZM8.58025 23.252C7.93363 23.252 7.40742 22.7556 7.40742 22.1448C7.40742 21.5341 7.93363 21.0376 8.58025 21.0376C9.22717 21.0376 9.75307 21.5341 9.75307 22.1448C9.75307 22.7556 9.22717 23.252 8.58025 23.252Z" fill="current"/>
<path d="M19.5681 19.2891C17.8999 19.2891 16.5431 20.57 16.5431 22.1445C16.5431 23.7191 17.8999 25 19.5681 25C21.2357 25 22.5927 23.7191 22.5927 22.1445C22.5927 20.57 21.2357 19.2891 19.5681 19.2891ZM19.5681 23.2518C18.9212 23.2518 18.3949 22.755 18.3949 22.1445C18.3949 21.5341 18.9212 21.0376 19.5681 21.0376C20.2147 21.0376 20.7409 21.5338 20.7409 22.1445C20.7409 22.7553 20.215 23.2518 19.5681 23.2518Z" fill="current"/>
<path d="M7.25308 18.4152H21.6665C22.1782 18.4152 22.5924 18.0239 22.5924 17.5411C22.5924 17.0583 22.1779 16.667 21.6665 16.667H8.04043L5.38952 1.31641C5.32595 0.948682 5.02287 0.659668 4.63429 0.595849L1.08493 0.0130842C0.579664 -0.0696796 0.101606 0.248827 0.0139387 0.724316C-0.0740389 1.20015 0.263648 1.65264 0.767308 1.7354L3.66757 2.21153L6.33912 17.6815C6.41236 18.1049 6.79907 18.4152 7.25308 18.4152Z" fill="current"/>
<path d="M24.8221 5.66256C24.6477 5.43673 24.3699 5.30328 24.0739 5.30328H5.24692V7.05153H22.8039L20.8992 12.6459H6.57409V14.3942H21.5742C21.9761 14.3942 22.3326 14.1488 22.4557 13.7875L24.9557 6.44484C25.0461 6.17887 24.9964 5.8881 24.8221 5.66256Z" fill="current"/>
</svg>
