<svg height="512" viewBox="0 0 42 58" width="512" xmlns="http://www.w3.org/2000/svg"><g id="Page-1" fill="none" fill-rule="evenodd"><g id="080---Filter-Extraction" fill-rule="nonzero"><path id="Shape" d="m28.51 29-2.61 6.36c-.0839296.2103365-.2398746.3840026-.44.49l-6.48 3.6c-.2490702.1387025-.5454994.1645047-.8147885.070922s-.4858337-.2976525-.5952115-.560922l-4.08-9.96 7.51-1z" fill="#bdc3c7"/><path id="Shape" d="m39.43 2.38-8.87 21.62-9.56 1-9.56-1-8.87-21.62c-.12638789-.3076385-.09155601-.65798195.09293109-.9347126.18448711-.27673066.49448418-.44363065.82706891-.4452874h7.53c-.0016387-.03364466.0017315-.06734606.01-.1.0439039-.51271325.4754349-.90501407.99-.9h17.96c.5099768-.00260768.9384932.38262419.99.89.0082797.03604777.0116435.07305013.01.11h7.53c.3325847.00165675.6425818.16855674.8270689.4452874.1844871.27673065.219319.6270741.0929311.9347126z" fill="#bdc3c7"/><path id="Shape" d="m28.86 43h-15.72c-.2876156.0004354-.5611184.1246887-.7506504.3410231-.1895319.2163345-.27674.5038017-.2393496.7889769l.38 2.87.89 6.66c.331023 2.4858116 2.4522457 4.3418814 4.96 4.34h5.24c2.5077543.0018814 4.628977-1.8541884 4.96-4.34l.89-6.66.38-2.87c.0373904-.2851752-.0498177-.5726424-.2393496-.7889769-.189532-.2163344-.4630348-.3405877-.7506504-.3410231z" fill="#cb8252"/><path id="Shape" d="m11.27 29-7.34 27.52c-.23500084.8727654-1.02615014 1.4794499-1.93 1.48-.17572735.0006863-.3507096-.022869-.52-.07-.51093941-.13595-.94677437-.4696394-1.21131082-.9274187-.26453645-.4577794-.33602569-1.0020128-.19868918-1.5125813l7.06-26.49z" fill="#95a5a5"/><path id="Shape" d="m40.52 57.93c-.1692904.047131-.3442727.0706863-.52.07-.9038499-.0005501-1.6949992-.6072346-1.93-1.48l-7.34-27.52h4.14l7.06 26.49c.1373365.5105685.0658473 1.0548019-.1986892 1.5125813-.2645364.4577793-.7003714.7914687-1.2113108.9274187z" fill="#95a5a5"/><path id="Shape" d="m34.87 29h-27.74l.94-3.51c.22468859-.8768169 1.01485207-1.4900167 1.92-1.49h22.02c.9051479-.0000167 1.6953114.6131831 1.92 1.49z" fill="#3b97d3"/><path id="Shape" d="m29.85 44.13-.38 2.87h-16.94l-.38-2.87c-.0373904-.2851752.0498177-.5726424.2393496-.7889769.189532-.2163344.4630348-.3405877.7506504-.3410231h15.72c.2876156.0004354.5611184.1246887.7506504.3410231.1895319.2163345.27674.5038017.2393496.7889769z" fill="#84b5cb"/><g fill="#7f8c8d"><path id="Shape" d="m32.96 1c-.0004756.21064323-.0342249.41988895-.1.62l-4.32 12.7c-.1375721.4073117-.5200841.6811098-.95.68-.1084523-.0019424-.2161245-.0187662-.32-.05-.5198281-.1822448-.7994113-.7458491-.63-1.27l4.32-12.7c-.0016261-.03034543.0017524-.06075164.01-.09.0082797.03604777.0116435.07305013.01.11z"/><path id="Shape" d="m15.36 13.68-4.31-12.68-.01-.03c.0016098-.02377632-.0017972-.04762549-.01-.07-.0082685.03265394-.0116387.06635534-.01.1h-1.98c.00047556.21064323.03422487.41988895.1.62l4.32 12.7c.1375721.4073117.5200841.6811098.95.68.1084523-.0019424.2161245-.0187662.32-.05.5198281-.1822448.7994113-.7458491.63-1.27z"/></g></g></g></svg>