<svg width="37" height="26" viewBox="0 0 37 26" fill="none" xmlns="http://www.w3.org/2000/svg">
<path d="M35.5547 11.5311H10.4252C9.62694 11.5311 8.97987 12.1887 8.97987 13C8.97987 13.8113 9.62694 14.4689 10.4252 14.4689H35.5547C36.3529 14.4689 37 13.8113 37 13C37 12.1887 36.3529 11.5311 35.5547 11.5311Z" fill="black"/>
<path d="M35.5547 0.514124H10.4252C9.62694 0.514124 8.97987 1.17176 8.97987 1.98305C8.97987 2.79434 9.62694 3.45198 10.4252 3.45198H35.5547C36.3529 3.45198 37 2.79434 37 1.98305C37 1.17176 36.3529 0.514124 35.5547 0.514124Z" fill="black"/>
<path d="M35.5547 22.548H10.4252C9.62694 22.548 8.97987 23.2057 8.97987 24.0169C8.97987 24.8282 9.62694 25.4859 10.4252 25.4859H35.5547C36.3529 25.4859 37 24.8282 37 24.0169C37 23.2057 36.3529 22.548 35.5547 22.548Z" fill="black"/>
<path d="M1.95117 3.9661C3.02877 3.9661 3.90234 3.07826 3.90234 1.98305C3.90234 0.887842 3.02877 0 1.95117 0C0.87357 0 0 0.887842 0 1.98305C0 3.07826 0.87357 3.9661 1.95117 3.9661Z" fill="black"/>
<path d="M1.95117 14.9831C3.02877 14.9831 3.90234 14.0952 3.90234 13C3.90234 11.9048 3.02877 11.0169 1.95117 11.0169C0.87357 11.0169 0 11.9048 0 13C0 14.0952 0.87357 14.9831 1.95117 14.9831Z" fill="black"/>
<path d="M1.95117 26C3.02877 26 3.90234 25.1122 3.90234 24.0169C3.90234 22.9217 3.02877 22.0339 1.95117 22.0339C0.87357 22.0339 0 22.9217 0 24.0169C0 25.1122 0.87357 26 1.95117 26Z" fill="black"/>
</svg>
