<svg width="224" height="30" viewBox="0 0 224 30" fill="none" xmlns="http://www.w3.org/2000/svg">
<path d="M27.2223 22.712C26.5823 23.848 25.6943 24.72 24.5583 25.328C23.4223 25.92 22.1343 26.216 20.6943 26.216C19.0303 26.216 17.5903 25.88 16.3743 25.208C15.1743 24.52 14.2543 23.552 13.6143 22.304C12.9743 21.04 12.6543 19.536 12.6543 17.792C12.6543 16 13.0063 14.424 13.7103 13.064C14.4303 11.704 15.4223 10.64 16.6863 9.872C17.9503 9.104 19.4223 8.72 21.1023 8.72C23.8863 8.72 25.9343 9.816 27.2463 12.008L25.3743 13.4C24.9103 12.568 24.3103 11.952 23.5743 11.552C22.8383 11.136 21.9983 10.928 21.0543 10.928C19.8863 10.928 18.8543 11.216 17.9583 11.792C17.0783 12.368 16.3823 13.176 15.8703 14.216C15.3743 15.24 15.1263 16.424 15.1263 17.768C15.1263 19.736 15.6143 21.264 16.5903 22.352C17.5823 23.44 18.9583 23.984 20.7183 23.984C21.7423 23.984 22.6543 23.76 23.4543 23.312C24.2543 22.864 24.9023 22.192 25.3983 21.296L27.2223 22.712ZM35.8566 26.216C34.2086 26.216 32.7846 25.888 31.5846 25.232C30.4006 24.56 29.4886 23.6 28.8486 22.352C28.2086 21.088 27.8886 19.568 27.8886 17.792C27.8886 16.016 28.2406 14.448 28.9446 13.088C29.6486 11.712 30.6246 10.64 31.8726 9.872C33.1366 9.104 34.6006 8.72 36.2646 8.72C37.7846 8.72 39.1206 9.072 40.2726 9.776C41.4246 10.48 42.3206 11.464 42.9606 12.728C43.6006 13.976 43.9206 15.448 43.9206 17.144C43.9206 18.984 43.5686 20.584 42.8646 21.944C42.1766 23.288 41.2246 24.336 40.0086 25.088C38.7926 25.824 37.4086 26.2 35.8566 26.216ZM35.8326 23.984C36.9366 23.984 37.9126 23.72 38.7606 23.192C39.6086 22.648 40.2646 21.864 40.7286 20.84C41.2086 19.8 41.4486 18.56 41.4486 17.12C41.4486 15.856 41.2326 14.76 40.8006 13.832C40.3846 12.904 39.7846 12.192 39.0006 11.696C38.2326 11.184 37.3206 10.928 36.2646 10.928C35.1126 10.928 34.0886 11.216 33.1926 11.792C32.3126 12.352 31.6166 13.152 31.1046 14.192C30.6086 15.216 30.3606 16.408 30.3606 17.768C30.3606 19.768 30.8486 21.304 31.8246 22.376C32.8006 23.448 34.1366 23.984 35.8326 23.984ZM56.9391 11.048H49.4511V16.568H56.6511V18.656H49.4511V26H47.0751V8.96H56.9391V11.048ZM68.8923 11.048H61.4043V16.568H68.6043V18.656H61.4043V26H59.0283V8.96H68.8923V11.048ZM81.3494 11.048H73.3574V16.328H81.0614V18.416H73.3574V23.912H81.6614L81.4694 26H70.9814V8.96H81.3494V11.048ZM94.5916 11.048H86.5996V16.328H94.3036V18.416H86.5996V23.912H94.9036L94.7116 26H84.2236V8.96H94.5916V11.048Z" fill="current"/>
<path d="M142.153 26V8.96H144.577V16.304H153.457V8.96H155.905V26H153.457V18.44H144.577V26H142.153ZM166.982 26.216C165.334 26.216 163.91 25.888 162.71 25.232C161.526 24.56 160.614 23.6 159.974 22.352C159.334 21.088 159.014 19.568 159.014 17.792C159.014 16.016 159.366 14.448 160.07 13.088C160.774 11.712 161.75 10.64 162.998 9.872C164.262 9.104 165.726 8.72 167.39 8.72C168.91 8.72 170.246 9.072 171.398 9.776C172.55 10.48 173.446 11.464 174.086 12.728C174.726 13.976 175.046 15.448 175.046 17.144C175.046 18.984 174.694 20.584 173.99 21.944C173.302 23.288 172.35 24.336 171.134 25.088C169.918 25.824 168.534 26.2 166.982 26.216ZM166.958 23.984C168.062 23.984 169.038 23.72 169.886 23.192C170.734 22.648 171.39 21.864 171.854 20.84C172.334 19.8 172.574 18.56 172.574 17.12C172.574 15.856 172.358 14.76 171.926 13.832C171.51 12.904 170.91 12.192 170.126 11.696C169.358 11.184 168.446 10.928 167.39 10.928C166.238 10.928 165.214 11.216 164.318 11.792C163.438 12.352 162.742 13.152 162.23 14.192C161.734 15.216 161.486 16.408 161.486 17.768C161.486 19.768 161.974 21.304 162.95 22.376C163.926 23.448 165.262 23.984 166.958 23.984ZM178.056 26L178.752 8.96H180.984L187.44 22.976L193.896 8.96H196.128L196.704 26H194.376L193.968 13.832L188.328 26H186.384L180.84 13.904L180.312 26H178.056ZM210.717 11.048H202.725V16.328H210.429V18.416H202.725V23.912H211.029L210.837 26H200.349V8.96H210.717V11.048Z" fill="current"/>
<ellipse rx="2.52463" ry="2.5" transform="matrix(1 0 0 -1 220.525 17.5)" fill="current"/>
<ellipse rx="2.52463" ry="2.5" transform="matrix(1 0 0 -1 2.52463 17.5)" fill="current"/>
<path d="M128.497 18.225C133.152 18.225 134.038 14.3474 134.123 13.9095C134.222 13.4154 134.056 12.9097 133.668 12.5273C133.281 12.145 132.711 11.9246 132.111 11.925H128.664C128.731 11.5647 128.765 11.2007 128.767 10.836V8.77505C128.767 8.02946 128.043 7.42505 127.151 7.42505H108.839C107.947 7.42505 107.223 8.02946 107.223 8.77505V10.836C107.226 11.5653 107.355 12.2904 107.606 12.9888C107.691 13.2272 107.99 13.3632 108.276 13.2926C108.561 13.222 108.724 12.9716 108.639 12.7332C108.441 12.1776 108.33 11.6028 108.309 11.0232H110.993C111.291 11.0232 111.532 10.8218 111.532 10.5732C111.532 10.3247 111.291 10.1232 110.993 10.1232H108.3V8.77505C108.3 8.52652 108.541 8.32505 108.839 8.32505H127.151C127.448 8.32505 127.689 8.52652 127.689 8.77505V10.125H114.225C113.927 10.125 113.686 10.3265 113.686 10.575C113.686 10.8236 113.927 11.025 114.225 11.025H127.68C127.62 12.441 127.037 13.8068 126.01 14.9346C125.058 15.9912 123.802 17.8794 123.102 20.925H121.679C121.381 20.925 121.14 21.1265 121.14 21.375C121.14 21.6236 121.381 21.825 121.679 21.825H128.794C129.076 21.8253 129.305 22.0166 129.305 22.2525V22.3021C129.306 22.4327 129.236 22.5567 129.115 22.6391L127.106 23.9801C127.014 24.0414 126.901 24.0749 126.783 24.075H120.063C119.766 24.075 119.524 24.2765 119.524 24.525C119.524 24.7736 119.766 24.975 120.063 24.975H126.785C127.146 24.9743 127.496 24.8715 127.778 24.6835L129.79 23.3411C130.166 23.088 130.384 22.7057 130.382 22.3021V22.2525C130.382 21.5197 129.671 20.9258 128.794 20.925H124.202C124.731 19.6812 125.903 18.225 128.497 18.225V18.225ZM126.872 15.4742C127.585 14.6796 128.115 13.7814 128.435 12.825H132.111C132.396 12.8247 132.667 12.93 132.85 13.1126C133.032 13.292 133.109 13.5295 133.061 13.761C132.946 14.355 132.183 17.325 128.497 17.325C127.265 17.2958 126.059 17.6304 125.092 18.27C125.523 17.2723 126.123 16.3309 126.872 15.4742Z" fill="current"/>
<path d="M113.114 26.3161C114.951 26.2627 116.691 25.6108 117.961 24.4999C119.294 23.4492 120.08 22.0027 120.149 20.4724C120.183 19.5344 119.76 18.6251 118.977 17.9524C117.085 16.3823 113.561 16.7626 111.123 18.8002C109.789 19.851 109.003 21.2976 108.934 22.8281C108.881 23.7669 109.304 24.6809 110.1 25.3453C110.896 26.0096 111.99 26.3626 113.114 26.3174V26.3161ZM117.2 23.8618C115.18 25.5502 112.339 25.9318 110.867 24.71C110.839 24.6857 110.819 24.656 110.791 24.6308C111.136 24.4653 111.522 24.3678 111.919 24.3455C113.603 24.2358 114.941 23.1196 115.076 21.713C115.142 20.7035 116.109 19.8982 117.317 19.8451C117.862 19.8068 118.389 19.666 118.86 19.4333C119.005 19.7657 119.077 20.1173 119.072 20.471C118.995 21.7607 118.324 22.9755 117.2 23.8618V23.8618ZM111.883 19.436C112.95 18.4929 114.412 17.9326 115.963 17.8732C116.799 17.8501 117.61 18.1078 118.217 18.5887C118.245 18.6125 118.265 18.6422 118.293 18.6674C117.948 18.833 117.562 18.9307 117.165 18.9532C115.481 19.0631 114.143 20.1792 114.009 21.5857C113.943 22.596 112.975 23.4022 111.766 23.455C111.221 23.4929 110.694 23.6337 110.224 23.8667C110.078 23.5341 110.006 23.1822 110.011 22.8281C110.089 21.538 110.759 20.3227 111.883 19.436V19.436Z" fill="current"/>
<path d="M111.043 17.1451C111.133 17.2899 111.31 17.3826 111.505 17.3875C111.7 17.3924 111.883 17.3087 111.983 17.1688C112.083 17.0288 112.085 16.8545 111.988 16.7131C110.948 15.1273 109.246 14.1783 107.435 14.1733C107.111 14.1738 106.787 14.2039 106.471 14.2633C103.781 14.7691 101.832 17.286 101.837 20.2501C101.832 23.595 104.342 26.3202 107.435 26.3251C107.761 26.3265 108.087 26.2951 108.404 26.2315C108.652 26.1817 108.824 25.994 108.816 25.7815C108.8 25.0225 108.462 24.2929 107.863 23.7223C107.382 23.288 107.119 22.7157 107.13 22.1239C107.123 21.5309 107.385 20.9578 107.864 20.5201C109.132 19.2878 109.132 17.4667 107.864 16.2343C107.519 15.9073 107.28 15.5113 107.171 15.0846C107.26 15.0783 107.348 15.0751 107.433 15.0751C108.866 15.0792 110.182 15.8343 111.043 17.1451V17.1451ZM107.739 18.3736C107.746 18.9678 107.483 19.5421 107.003 19.9801C105.736 21.2127 105.736 23.0333 107.003 24.2659C107.349 24.5933 107.588 24.99 107.696 25.4175C107.612 25.4233 107.527 25.426 107.438 25.426C104.938 25.4211 102.91 23.1 102.915 20.2501C102.91 17.9745 104.255 15.9549 106.125 15.3001C106.27 15.8449 106.573 16.3515 107.008 16.7752C107.488 17.21 107.75 17.7822 107.739 18.3736V18.3736Z" fill="current"/>
<path d="M115.128 2.28065C115.567 2.00879 115.831 1.58184 115.841 1.12505C115.841 0.876521 115.6 0.675049 115.302 0.675049C115.005 0.675049 114.764 0.876521 114.764 1.12505C114.764 1.3307 114.656 1.4189 114.4 1.61735C113.96 1.88912 113.696 2.31634 113.687 2.7734C113.696 3.23063 113.96 3.65811 114.4 3.93035C114.659 4.1288 114.764 4.21745 114.764 4.42535C114.764 4.63325 114.656 4.721 114.4 4.92035C113.961 5.1922 113.697 5.61865 113.687 6.07505C113.687 6.32358 113.928 6.52505 114.225 6.52505C114.523 6.52505 114.764 6.32358 114.764 6.07505C114.764 5.8685 114.871 5.77985 115.128 5.58005C115.567 5.30777 115.83 4.88083 115.841 4.424C115.831 3.9668 115.567 3.53938 115.128 3.26705C114.871 3.0686 114.764 2.97995 114.764 2.7734C114.764 2.56685 114.871 2.4791 115.128 2.28065V2.28065Z" fill="current"/>
<path d="M118.359 2.28065C118.799 2.00879 119.062 1.58184 119.072 1.12505C119.072 0.876521 118.831 0.675049 118.534 0.675049C118.236 0.675049 117.995 0.876521 117.995 1.12505C117.995 1.3307 117.887 1.4189 117.632 1.61735C117.192 1.88912 116.928 2.31634 116.918 2.7734C116.928 3.23063 117.191 3.65811 117.631 3.93035C117.89 4.1288 117.995 4.21745 117.995 4.42535C117.995 4.63325 117.887 4.721 117.631 4.92035C117.192 5.1922 116.929 5.61865 116.918 6.07505C116.918 6.32358 117.159 6.52505 117.457 6.52505C117.754 6.52505 117.995 6.32358 117.995 6.07505C117.995 5.8685 118.103 5.77985 118.359 5.58005C118.798 5.30777 119.062 4.88083 119.072 4.424C119.062 3.9668 118.799 3.53938 118.359 3.26705C118.103 3.0686 117.995 2.97995 117.995 2.7734C117.995 2.56685 118.103 2.4791 118.359 2.28065V2.28065Z" fill="current"/>
<path d="M121.591 2.28065C122.03 2.00879 122.294 1.58184 122.304 1.12505C122.304 0.876521 122.063 0.675049 121.765 0.675049C121.468 0.675049 121.227 0.876521 121.227 1.12505C121.227 1.3307 121.119 1.4189 120.863 1.61735C120.423 1.88912 120.159 2.31634 120.149 2.7734C120.159 3.23063 120.423 3.65811 120.863 3.93035C121.122 4.1288 121.227 4.21745 121.227 4.42535C121.227 4.63325 121.119 4.721 120.863 4.92035C120.424 5.1922 120.16 5.61865 120.149 6.07505C120.149 6.32358 120.391 6.52505 120.688 6.52505C120.985 6.52505 121.227 6.32358 121.227 6.07505C121.227 5.8685 121.334 5.77985 121.591 5.58005C122.03 5.30777 122.293 4.88083 122.304 4.424C122.294 3.9668 122.03 3.53938 121.591 3.26705C121.334 3.0686 121.227 2.97995 121.227 2.7734C121.227 2.56685 121.334 2.4791 121.591 2.28065V2.28065Z" fill="current"/>
</svg>
