<svg height="512" viewBox="0 0 58 58" width="512" xmlns="http://www.w3.org/2000/svg"><g id="Page-1" fill="none" fill-rule="evenodd"><g id="006---Espresso-Machine" fill-rule="nonzero"><path id="Shape" d="m58 9v-6c0-1.65685425-1.3431458-3-3-3h-52c-1.65685425 0-3 1.34314575-3 3v6c0 1.6568542 1.34314575 3 3 3v37h-2c-.55228475 0-1 .4477153-1 1v4c0 2.209139 1.790861 4 4 4h50c2.209139 0 4-1.790861 4-4v-4c0-.5522847-.4477153-1-1-1h-2v-19h1c1.1032019-.0032948 1.9967052-.8967981 2-2v-3c-.0032948-1.1032019-.8967981-1.9967052-2-2h-1v-11c1.6568542 0 3-1.3431458 3-3z" fill="#3b97d3"/><path id="Shape" d="m55 30v19h-52v-37h7.91c1.892216.0000635 3.6222872 1.0682954 4.47 2.76l2.24 4.48c.8477128 1.6917046 2.577784 2.7599365 4.47 2.76h-1.09v6c0 1.6568542 1.3431458 3 3 3h10c1.6568542 0 3-1.3431458 3-3v1h6.27c.356899.6181681 1.0162016.9992679 1.73 1z" fill="#95a5a5"/><path id="Shape" d="m11 29c-.5522847 0-1-.4477153-1-1v-.76c.0027286-1.0932058-.43187848-2.142096-1.207-2.913-1.15153361-1.1450103-1.7971656-2.7030971-1.793-4.327v-8c0-.5522847.44771525-1 1-1s1 .4477153 1 1v8c-.00272861 1.0932058.43187848 2.142096 1.207 2.913 1.1515336 1.1450103 1.7971656 2.7030971 1.793 4.327v.76c0 .5522847-.4477153 1-1 1z" fill="#bdc3c7"/><path id="Shape" d="m55 12v11h-10c-.7137984.0007321-1.373101.3818319-1.73 1h-6.27v-2h-1.09c1.892216-.0000635 3.6222872-1.0682954 4.47-2.76l2.24-4.48c.8477128-1.6917046 2.577784-2.7599365 4.47-2.76z" fill="#95a5a5"/><path id="Shape" d="m58 50v3h-58v-3c0-.5522847.44771525-1 1-1h56c.5522847 0 1 .4477153 1 1z" fill="#bdc3c7"/><path id="Shape" d="m38.678 46c-1.6130443-.0124075-3.215627-.2603581-4.757-.736-.5247314-.1631099-.8195483-.7190534-.6601899-1.2449363.1593585-.5258829.7131824-.8246625 1.2401899-.6690637 3.93 1.192 7.247.6 8.493-.6.5456853-.5037428.7449481-1.2808283.509-1.985-.117113-.4395036-.508397-.7503367-.963-.765h-3.54c-.5522847 0-1-.4477153-1-1s.4477153-1 1-1h3.54c1.3627809.0102577 2.5503204.9308056 2.9 2.248.4226269 1.4070927.0151257 2.9322231-1.053 3.941-1.6088995 1.2976022-3.6463162 1.9439084-5.709 1.811z" fill="#bdc3c7"/><path id="Shape" d="m44.73 28c.0006233.3512598.0937465.6961604.27 1h-10v-5h10c-.1762535.3038396-.2693767.6487402-.27 1z" fill="#56595e"/><path id="Shape" d="m58 25v3c-.0032948 1.1032019-.8967981 1.9967052-2 2h-11c-1.1045695 0-2-.8954305-2-2v-3c0-1.1045695.8954305-2 2-2h11c1.1032019.0032948 1.9967052.8967981 2 2z" fill="#285680"/><path id="Shape" d="m25 34c-.5522847 0-1-.4477153-1-1v-2c0-.5522847.4477153-1 1-1s1 .4477153 1 1v2c0 .5522847-.4477153 1-1 1z" fill="#a56a43"/><path id="Shape" d="m33 34c-.5522847 0-1-.4477153-1-1v-2c0-.5522847.4477153-1 1-1s1 .4477153 1 1v2c0 .5522847-.4477153 1-1 1z" fill="#a56a43"/><path id="Shape" d="m9.19 39h3.62c.5615963-.0005034 1.0971052-.2370999 1.4756327-.6519585.3785275-.4148585.565192-.9697495.5143673-1.5290415l-.637-7c-.0935184-1.0291233-.9556373-1.8175569-1.989-1.819h-2.348c-1.03412985.00041-1.89741132.7891137-1.991 1.819l-.637 7c-.05085598.5596385.1360722 1.1148535.51504182 1.5297795.37896963.4149261.91501367.6512787 1.47695818.6512205z" fill="#464f5d"/><path id="Shape" d="m39 37v6c.0018379.6820602-.1166438 1.3590987-.35 2-.8419479 2.3985166-3.1080027 4.0028032-5.65 4h-8c-3.3137085 0-6-2.6862915-6-6v-6c0-.5522847.4477153-1 1-1h18c.5522847 0 1 .4477153 1 1z" fill="#ecf0f1"/><path id="Shape" d="m25 46c-1.6568542 0-3-1.3431458-3-3 0-.5522847.4477153-1 1-1s1 .4477153 1 1 .4477153 1 1 1 1 .4477153 1 1-.4477153 1-1 1z" fill="#fff"/><path id="Shape" d="m37 20v8c0 1.6568542-1.3431458 3-3 3h-10c-1.6568542 0-3-1.3431458-3-3v-8z" fill="#7f8284"/><path id="Shape" d="m58 3v6c0 1.6568542-1.3431458 3-3 3h-7.91c-1.892216.0000635-3.6222872 1.0682954-4.47 2.76l-2.24 4.48c-.8477128 1.6917046-2.577784 2.7599365-4.47 2.76h-13.82c-1.892216-.0000635-3.6222872-1.0682954-4.47-2.76l-2.24-4.48c-.8477128-1.6917046-2.577784-2.7599365-4.47-2.76h-7.91c-1.65685425 0-3-1.3431458-3-3v-6c0-1.65685425 1.34314575-3 3-3h52c1.6568542 0 3 1.34314575 3 3z" fill="#3b97d3"/><circle id="Oval" cx="7" cy="6" fill="#464f5d" r="4"/><circle id="Oval" cx="15" cy="6" fill="#464f5d" r="4"/><circle id="Oval" cx="43" cy="6" fill="#464f5d" r="4"/><circle id="Oval" cx="51" cy="6" fill="#464f5d" r="4"/><circle id="Oval" cx="29" cy="11" fill="#fff" r="6"/><path id="Shape" d="m29 12c-.5522847 0-1-.4477153-1-1v-2c0-.55228475.4477153-1 1-1s1 .44771525 1 1v2c0 .5522847-.4477153 1-1 1z" fill="#e64c3c"/><g fill="#bdc3c7"><circle id="Oval" cx="7" cy="6" r="2"/><circle id="Oval" cx="15" cy="6" r="2"/><circle id="Oval" cx="43" cy="6" r="2"/><circle id="Oval" cx="51" cy="6" r="2"/><path id="Shape" d="m29 18c-3.8659932 0-7-3.1340068-7-7 0-3.86599325 3.1340068-7 7-7s7 3.13400675 7 7c-.0044086 3.8641657-3.1358343 6.9955914-7 7zm0-12c-2.7614237 0-5 2.23857625-5 5 0 2.7614237 2.2385763 5 5 5s5-2.2385763 5-5c-.0033061-2.76005315-2.2399468-4.99669388-5-5z"/></g></g></g></svg>