<svg width="25" height="25" viewBox="0 0 25 25" fill="none" xmlns="http://www.w3.org/2000/svg">
<path d="M24.6945 23.2219L17.5852 16.1125C18.9623 14.4115 19.7914 12.25 19.7914 9.89585C19.7914 4.4396 15.3519 0 9.89569 0C4.4395 0 0 4.43955 0 9.8958C0 15.3521 4.43955 19.7917 9.89574 19.7917C12.2499 19.7917 14.4113 18.9625 16.1123 17.5854L23.2216 24.6948C23.4247 24.8979 23.6914 25 23.9581 25C24.2248 25 24.4914 24.8979 24.6946 24.6948C25.1018 24.2875 25.1018 23.6292 24.6945 23.2219ZM9.89574 17.7083C5.58744 17.7083 2.08333 14.2042 2.08333 9.8958C2.08333 5.58745 5.58744 2.0833 9.89574 2.0833C14.204 2.0833 17.7082 5.58745 17.7082 9.8958C17.7082 14.2042 14.204 17.7083 9.89574 17.7083Z" fill="white"/>
</svg>
