<svg width="25" height="25" viewBox="0 0 25 25" fill="none" xmlns="http://www.w3.org/2000/svg">
<path d="M24.9641 9.49312C24.878 9.21512 24.6488 9.01258 24.3729 8.97055L16.6228 7.78994L13.1568 0.427969C13.0334 0.165895 12.7788 0 12.5 0C12.2213 0 11.9666 0.165946 11.8432 0.427969L8.37703 7.78999L0.627093 8.97055C0.351215 9.01258 0.122016 9.21517 0.0358832 9.49312C-0.0502983 9.77106 0.0215766 10.0762 0.221186 10.2802L5.82899 16.0107L4.50536 24.1024C4.45824 24.3904 4.57123 24.6816 4.79677 24.8533C5.02225 25.025 5.32118 25.0477 5.5681 24.9118L12.5 21.0914L19.4317 24.9118C19.5388 24.9709 19.6558 25 19.7724 25C19.9243 25 20.0755 24.9506 20.203 24.8534C20.4285 24.6816 20.5415 24.3905 20.4944 24.1024L19.1704 16.0107L24.7788 10.2802C24.9784 10.0762 25.0503 9.77106 24.9641 9.49312ZM17.8722 15.1928C17.6995 15.3692 17.6207 15.6234 17.6615 15.8725L18.7998 22.8286L12.8409 19.5444C12.6275 19.4268 12.3726 19.4268 12.1592 19.5444L6.19999 22.8286L7.33787 15.8724C7.3786 15.6233 7.29984 15.3693 7.12728 15.1929L2.30644 10.2665L8.96878 9.25152C9.20735 9.21517 9.41351 9.05813 9.52024 8.83153L12.5 2.50255L15.4796 8.83148C15.5863 9.05808 15.7925 9.21517 16.0311 9.25152L22.6935 10.2664L17.8722 15.1928Z" fill="white"/>
</svg>
