<svg width="30" height="30" viewBox="0 0 30 30" fill="none" xmlns="http://www.w3.org/2000/svg">
<path d="M6 26V27H8V26H6ZM22 26V27H24V26H22ZM8 26V24.9997H6V26H8ZM13 20H17V18H13V20ZM22 24.9997V26H24V24.9997H22ZM17 20C19.7615 20 22 22.2384 22 24.9997H24C24 21.1337 20.8659 18 17 18V20ZM8 24.9997C8 22.2384 10.2385 20 13 20V18C9.13407 18 6 21.1337 6 24.9997H8ZM15 6C12.2386 6 10 8.23858 10 11H12C12 9.34315 13.3431 8 15 8V6ZM20 11C20 8.23858 17.7614 6 15 6V8C16.6569 8 18 9.34315 18 11H20ZM15 16C17.7614 16 20 13.7614 20 11H18C18 12.6569 16.6569 14 15 14V16ZM15 14C13.3431 14 12 12.6569 12 11H10C10 13.7614 12.2386 16 15 16V14ZM15 28C7.8203 28 2 22.1797 2 15H0C0 23.2843 6.71573 30 15 30V28ZM28 15C28 22.1797 22.1797 28 15 28V30C23.2843 30 30 23.2843 30 15H28ZM15 2C22.1797 2 28 7.8203 28 15H30C30 6.71573 23.2843 0 15 0V2ZM15 0C6.71573 0 0 6.71573 0 15H2C2 7.8203 7.8203 2 15 2V0Z" fill="#F2F2F2"/>
</svg>
