<svg width="500" height="72" viewBox="0 0 500 72" fill="none" xmlns="http://www.w3.org/2000/svg">
<path d="M65.4535 53.465C63.9868 56.0683 61.9518 58.0667 59.3485 59.46C56.7452 60.8167 53.7935 61.495 50.4935 61.495C46.6802 61.495 43.3802 60.725 40.5935 59.185C37.8435 57.6083 35.7352 55.39 34.2685 52.53C32.8018 49.6333 32.0685 46.1867 32.0685 42.19C32.0685 38.0833 32.8752 34.4717 34.4885 31.355C36.1385 28.2383 38.4118 25.8 41.3085 24.04C44.2052 22.28 47.5785 21.4 51.4285 21.4C57.8085 21.4 62.5018 23.9117 65.5085 28.935L61.2185 32.125C60.1552 30.2183 58.7802 28.8067 57.0935 27.89C55.4068 26.9367 53.4818 26.46 51.3185 26.46C48.6418 26.46 46.2768 27.12 44.2235 28.44C42.2068 29.76 40.6118 31.6117 39.4385 33.995C38.3018 36.3417 37.7335 39.055 37.7335 42.135C37.7335 46.645 38.8518 50.1467 41.0885 52.64C43.3618 55.1333 46.5152 56.38 50.5485 56.38C52.8952 56.38 54.9852 55.8667 56.8185 54.84C58.6518 53.8133 60.1368 52.2733 61.2735 50.22L65.4535 53.465ZM85.2406 61.495C81.4639 61.495 78.2006 60.7433 75.4506 59.24C72.7373 57.7 70.6473 55.5 69.1806 52.64C67.7139 49.7433 66.9806 46.26 66.9806 42.19C66.9806 38.12 67.7873 34.5267 69.4006 31.41C71.0139 28.2567 73.2506 25.8 76.1106 24.04C79.0073 22.28 82.3623 21.4 86.1756 21.4C89.6589 21.4 92.7206 22.2067 95.3606 23.82C98.0006 25.4333 100.054 27.6883 101.521 30.585C102.987 33.445 103.721 36.8183 103.721 40.705C103.721 44.9217 102.914 48.5883 101.301 51.705C99.7239 54.785 97.5423 57.1867 94.7556 58.91C91.9689 60.5967 88.7973 61.4583 85.2406 61.495ZM85.1856 56.38C87.7156 56.38 89.9523 55.775 91.8956 54.565C93.8389 53.3183 95.3423 51.5217 96.4056 49.175C97.5056 46.7917 98.0556 43.95 98.0556 40.65C98.0556 37.7533 97.5606 35.2417 96.5706 33.115C95.6173 30.9883 94.2423 29.3567 92.4456 28.22C90.6856 27.0467 88.5956 26.46 86.1756 26.46C83.5356 26.46 81.1889 27.12 79.1356 28.44C77.1189 29.7233 75.5239 31.5567 74.3506 33.94C73.2139 36.2867 72.6456 39.0183 72.6456 42.135C72.6456 46.7183 73.7639 50.2383 76.0006 52.695C78.2373 55.1517 81.2989 56.38 85.1856 56.38ZM133.555 26.735H116.395V39.385H132.895V44.17H116.395V61H110.95V21.95H133.555V26.735ZM160.947 26.735H143.787V39.385H160.287V44.17H143.787V61H138.342V21.95H160.947V26.735ZM189.495 26.735H171.18V38.835H188.835V43.62H171.18V56.215H190.21L189.77 61H165.735V21.95H189.495V26.735Z" fill="white"/>
<path d="M310.435 61V21.95H315.99V38.78H336.34V21.95H341.95V61H336.34V43.675H315.99V61H310.435ZM367.333 61.495C363.556 61.495 360.293 60.7433 357.543 59.24C354.83 57.7 352.74 55.5 351.273 52.64C349.806 49.7433 349.073 46.26 349.073 42.19C349.073 38.12 349.88 34.5267 351.493 31.41C353.106 28.2567 355.343 25.8 358.203 24.04C361.1 22.28 364.455 21.4 368.268 21.4C371.751 21.4 374.813 22.2067 377.453 23.82C380.093 25.4333 382.146 27.6883 383.613 30.585C385.08 33.445 385.813 36.8183 385.813 40.705C385.813 44.9217 385.006 48.5883 383.393 51.705C381.816 54.785 379.635 57.1867 376.848 58.91C374.061 60.5967 370.89 61.4583 367.333 61.495ZM367.278 56.38C369.808 56.38 372.045 55.775 373.988 54.565C375.931 53.3183 377.435 51.5217 378.498 49.175C379.598 46.7917 380.148 43.95 380.148 40.65C380.148 37.7533 379.653 35.2417 378.663 33.115C377.71 30.9883 376.335 29.3567 374.538 28.22C372.778 27.0467 370.688 26.46 368.268 26.46C365.628 26.46 363.281 27.12 361.228 28.44C359.211 29.7233 357.616 31.5567 356.443 33.94C355.306 36.2867 354.738 39.0183 354.738 42.135C354.738 46.7183 355.856 50.2383 358.093 52.695C360.33 55.1517 363.391 56.38 367.278 56.38ZM392.712 61L394.307 21.95H399.422L414.217 54.07L429.012 21.95H434.127L435.447 61H430.112L429.177 33.115L416.252 61H411.797L399.092 33.28L397.882 61H392.712ZM467.559 26.735H449.244V38.835H466.899V43.62H449.244V56.215H468.274L467.834 61H443.799V21.95H467.559V26.735Z" fill="white"/>
<ellipse rx="6.15764" ry="6.09756" transform="matrix(1 0 0 -1 493.842 42.683)" fill="white"/>
<ellipse rx="6.15764" ry="6.09756" transform="matrix(1 0 0 -1 6.15764 42.683)" fill="white"/>
<g clip-path="url(#clip0)">
<path d="M274.385 44.4513C285.738 44.4513 287.899 34.9936 288.105 33.9257C288.347 32.7204 287.942 31.4871 286.996 30.5545C286.051 29.6218 284.662 29.0845 283.199 29.0855H274.792C274.953 28.2065 275.037 27.3187 275.041 26.4294V21.4025C275.041 19.584 273.277 18.1099 271.1 18.1099H226.437C224.261 18.1099 222.496 19.584 222.496 21.4025V26.4294C222.504 28.208 222.818 29.9765 223.43 31.6801C223.636 32.2614 224.367 32.5931 225.063 32.421C225.759 32.2488 226.156 31.638 225.95 31.0567C225.467 29.7013 225.196 28.2994 225.144 26.886H231.692C232.417 26.886 233.005 26.3946 233.005 25.7884C233.005 25.1822 232.417 24.6908 231.692 24.6908H225.123V21.4025C225.123 20.7964 225.712 20.305 226.437 20.305H271.1C271.826 20.305 272.414 20.7964 272.414 21.4025V24.6952H239.573C238.848 24.6952 238.26 25.1866 238.26 25.7928C238.26 26.399 238.848 26.8904 239.573 26.8904H272.39C272.244 30.344 270.822 33.675 268.318 36.426C265.996 39.003 262.932 43.6084 261.225 51.0367H257.754C257.029 51.0367 256.44 51.5281 256.44 52.1343C256.44 52.7404 257.029 53.2318 257.754 53.2318H275.107C275.796 53.2324 276.354 53.6989 276.355 54.2745V54.3952C276.357 54.714 276.186 55.0162 275.89 55.2173L270.991 58.488C270.768 58.6375 270.49 58.7192 270.203 58.7196H253.813C253.088 58.7196 252.5 59.211 252.5 59.8172C252.5 60.4234 253.088 60.9148 253.813 60.9148H270.207C271.088 60.9128 271.941 60.6622 272.63 60.2035L277.537 56.9295C278.455 56.3123 278.987 55.3796 278.982 54.3952V54.2745C278.98 52.4871 277.246 51.0385 275.107 51.0367H263.908C265.198 48.003 268.057 44.4513 274.385 44.4513V44.4513ZM270.42 37.7419C272.159 35.804 273.451 33.6131 274.232 31.2806H283.199C283.894 31.2798 284.555 31.5366 285.001 31.9819C285.445 32.4194 285.633 32.9988 285.515 33.5635C285.234 35.0123 283.374 42.2562 274.385 42.2562C271.378 42.1848 268.437 43.0009 266.078 44.5611C267.131 42.1275 268.593 39.8314 270.42 37.7419Z" fill="white"/>
<path d="M236.863 64.1855C241.345 64.0553 245.588 62.4654 248.686 59.7558C251.939 57.1932 253.856 53.6652 254.023 49.9326C254.106 47.6449 253.074 45.4271 251.165 43.7862C246.55 39.9568 237.954 40.8843 232.008 45.854C228.755 48.4171 226.838 51.9453 226.67 55.6783C226.54 57.9681 227.572 60.1974 229.513 61.8177C231.454 63.438 234.123 64.299 236.863 64.1888V64.1855ZM246.831 58.1994C241.904 62.3175 234.974 63.2482 231.384 60.2683C231.315 60.209 231.266 60.1366 231.199 60.0751C232.041 59.6716 232.981 59.4336 233.95 59.3793C238.056 59.1117 241.321 56.3893 241.649 52.9585C241.812 50.4963 244.169 48.5322 247.116 48.4026C248.445 48.3092 249.731 47.9659 250.878 47.3983C251.232 48.2091 251.407 49.0665 251.396 49.9293C251.208 53.0748 249.573 56.0379 246.831 58.1994V58.1994ZM233.863 47.4049C236.463 45.1046 240.031 43.738 243.814 43.5931C245.852 43.5369 247.831 44.1655 249.31 45.3382C249.38 45.3963 249.428 45.4688 249.495 45.5303C248.654 45.9342 247.713 46.1725 246.744 46.2272C242.638 46.4953 239.374 49.2176 239.047 52.6479C238.885 55.1122 236.526 57.0785 233.577 57.2072C232.248 57.2998 230.961 57.6432 229.814 58.2115C229.46 57.4002 229.285 56.5419 229.297 55.6783C229.485 52.5317 231.121 49.5675 233.863 47.4049V47.4049Z" fill="white"/>
<path d="M231.812 41.8174C232.032 42.1704 232.463 42.3966 232.939 42.4085C233.415 42.4205 233.861 42.2163 234.105 41.875C234.35 41.5336 234.354 41.1085 234.117 40.7637C231.58 36.8959 227.43 34.5812 223.012 34.5691C222.221 34.5701 221.433 34.6437 220.661 34.7886C214.099 36.0223 209.347 42.1609 209.36 49.3906C209.347 57.5487 215.47 64.1956 223.012 64.2076C223.809 64.211 224.603 64.1343 225.377 63.9793C225.98 63.8577 226.399 63.4 226.382 62.8818C226.342 61.0306 225.518 59.251 224.057 57.8593C222.884 56.7999 222.243 55.404 222.268 53.9608C222.251 52.5144 222.891 51.1165 224.059 50.0491C227.151 47.0435 227.151 42.6016 224.059 39.5959C223.217 38.7982 222.634 37.8323 222.369 36.7917C222.587 36.7763 222.8 36.7686 223.008 36.7686C226.503 36.7785 229.712 38.6202 231.812 41.8174V41.8174ZM223.753 44.8137C223.772 46.2628 223.131 47.6636 221.959 48.732C218.869 51.7384 218.869 56.1789 221.959 59.1852C222.803 59.9836 223.386 60.9513 223.65 61.9939C223.445 62.0081 223.236 62.0147 223.02 62.0147C216.922 62.0026 211.977 56.3414 211.987 49.3906C211.977 43.8402 215.257 38.9143 219.818 37.3174C220.171 38.6461 220.911 39.8817 221.971 40.9152C223.142 41.9755 223.78 43.3713 223.753 44.8137V44.8137Z" fill="white"/>
<path d="M241.775 5.56258C242.847 4.8995 243.49 3.85817 243.514 2.74405C243.514 2.13788 242.926 1.64648 242.201 1.64648C241.475 1.64648 240.887 2.13788 240.887 2.74405C240.887 3.24563 240.624 3.46075 240 3.94478C238.927 4.60764 238.284 5.64963 238.26 6.76441C238.284 7.87961 238.927 8.92224 239.999 9.58624C240.631 10.0703 240.887 10.2865 240.887 10.7936C240.887 11.3006 240.624 11.5147 239.999 12.0009C238.929 12.6639 238.286 13.704 238.26 14.8172C238.26 15.4234 238.848 15.9148 239.574 15.9148C240.299 15.9148 240.887 15.4234 240.887 14.8172C240.887 14.3134 241.15 14.0972 241.775 13.6099C242.846 12.9458 243.489 11.9045 243.514 10.7903C243.49 9.67515 242.847 8.63267 241.775 7.96844C241.15 7.48441 240.887 7.26819 240.887 6.76441C240.887 6.26063 241.15 6.04661 241.775 5.56258V5.56258Z" fill="white"/>
<path d="M249.657 5.56258C250.729 4.8995 251.371 3.85817 251.396 2.74405C251.396 2.13788 250.808 1.64648 250.082 1.64648C249.357 1.64648 248.769 2.13788 248.769 2.74405C248.769 3.24563 248.506 3.46075 247.882 3.94478C246.809 4.60764 246.166 5.64963 246.142 6.76441C246.166 7.87961 246.808 8.92224 247.881 9.58624C248.513 10.0703 248.769 10.2865 248.769 10.7936C248.769 11.3006 248.506 11.5147 247.881 12.0009C246.81 12.6639 246.168 13.704 246.142 14.8172C246.142 15.4234 246.73 15.9148 247.455 15.9148C248.181 15.9148 248.769 15.4234 248.769 14.8172C248.769 14.3134 249.032 14.0972 249.657 13.6099C250.728 12.9458 251.37 11.9045 251.396 10.7903C251.372 9.67515 250.729 8.63267 249.657 7.96844C249.032 7.48441 248.769 7.26819 248.769 6.76441C248.769 6.26063 249.032 6.04661 249.657 5.56258V5.56258Z" fill="white"/>
<path d="M257.539 5.56258C258.61 4.8995 259.253 3.85817 259.278 2.74405C259.278 2.13788 258.69 1.64648 257.964 1.64648C257.239 1.64648 256.651 2.13788 256.651 2.74405C256.651 3.24563 256.388 3.46075 255.764 3.94478C254.691 4.60764 254.048 5.64963 254.023 6.76441C254.047 7.87961 254.69 8.92224 255.763 9.58624C256.394 10.0703 256.651 10.2865 256.651 10.7936C256.651 11.3006 256.388 11.5147 255.763 12.0009C254.692 12.6639 254.05 13.704 254.023 14.8172C254.023 15.4234 254.611 15.9148 255.337 15.9148C256.062 15.9148 256.651 15.4234 256.651 14.8172C256.651 14.3134 256.913 14.0972 257.539 13.6099C258.61 12.9458 259.252 11.9045 259.278 10.7903C259.253 9.67515 258.611 8.63267 257.539 7.96844C256.913 7.48441 256.651 7.26819 256.651 6.76441C256.651 6.26063 256.913 6.04661 257.539 5.56258V5.56258Z" fill="white"/>
</g>
<defs>
<clipPath id="clip0">
<rect width="78.8177" height="65.8537" fill="white" transform="translate(209.36)"/>
</clipPath>
</defs>
</svg>
